<svg width="24" height="24" viewBox="0 0 24 24" fill="none" xmlns="http://www.w3.org/2000/svg">
<path d="M3.97828 8.00047C3.99276 8.33348 4.00724 8.6665 4.02172 8.99952C4.64489 8.9647 5.29089 8.932 5.9157 8.90161C9.57939 8.7688 13.425 8.4456 16.896 8.81211C17.9967 9.12077 18.7966 9.57303 19.2449 10.6275C19.7857 11.7592 20.0156 13.2275 19.7805 14.4268C19.5501 15.2503 19.1593 15.9651 18.4117 16.3234C17.151 16.9584 14.9941 17.1089 14.631 15.4672C14.3676 14.4662 14.1853 13.2686 15.0655 12.5655C15.8783 12.0255 17.3768 12.1063 17.9565 13.0217C18.2444 13.5419 18.0506 14.2118 17.6362 14.6275C17.4626 14.8015 17.2473 14.969 17 14.985C16.6203 14.9799 16.279 14.7503 16 14.5C16.2732 14.7574 16.6061 14.9984 17 15.015C17.2659 15.0039 17.4875 14.8368 17.6716 14.6628C18.107 14.2498 18.3386 13.5489 18.0435 12.9782C17.773 12.4384 17.163 12.2132 16.6116 12.1294C16.0526 12.0671 15.4407 12.0409 14.9345 12.4345C13.9737 13.1515 14.121 14.5278 14.369 15.5327C14.5177 16.3748 15.3398 17.0276 16.1738 17.0911C17.0071 17.1855 17.828 17.0228 18.5883 16.6766C19.4492 16.3097 19.9816 15.3864 20.2195 14.5732C20.5369 13.1042 20.3303 11.718 19.7551 10.3725C19.508 9.87026 19.2227 9.31111 18.6996 8.92504C18.1848 8.55003 17.6301 8.37815 17.104 8.18788C13.2349 7.65295 9.61493 7.92742 5.88227 7.95219C5.25454 7.96602 4.60789 7.98205 3.97828 8.00047Z" fill="black"/>
</svg>
